<?xml version="1.0" encoding="UTF-8" standalone="no"?>
<!DOCTYPE svg PUBLIC "-//W3C//DTD SVG 1.1//EN" "http://www.w3.org/Graphics/SVG/1.1/DTD/svg11.dtd">
<svg width="100%" height="100%" viewBox="0 0 98 47" version="1.1" xmlns="http://www.w3.org/2000/svg" xmlns:xlink="http://www.w3.org/1999/xlink" xml:space="preserve" xmlns:serif="http://www.serif.com/" style="fill-rule:evenodd;clip-rule:evenodd;stroke-linejoin:round;stroke-miterlimit:2;">
    <g transform="matrix(1,0,0,1,-40,-27)">
        <path d="M45.031,36.178C44.396,34.564 44.672,32.707 45.257,31.146C45.873,29.503 46.945,27.864 48.547,27C48.627,28.731 48.098,30.442 47.52,31.985C47,33.372 46.362,34.85 45.309,35.997C45.148,36.867 45.024,37.734 44.936,38.597C45.285,37.685 45.851,36.854 46.557,36.186C47.467,35.326 48.819,34.662 50.088,35.054C49.716,36.457 48.869,37.803 47.865,38.746C47.075,39.489 46.032,40.441 44.804,40.478C44.753,41.748 44.782,43.006 44.886,44.248C45.06,43.339 45.431,42.484 45.968,41.847C46.705,40.972 47.797,39.902 49.193,40.081C49.117,41.501 48.55,42.956 47.761,44.05C47.134,44.919 46.307,46.026 45.132,46.312C45.32,47.532 45.582,48.731 45.915,49.905C45.918,49.006 46.116,48.124 46.51,47.417C47.065,46.419 47.929,45.175 49.327,45.078C49.532,46.471 49.254,47.994 48.694,49.205C48.247,50.174 47.65,51.408 46.563,51.919C47.02,53.182 47.56,54.41 48.179,55.594C47.962,54.573 47.971,53.497 48.228,52.529C48.583,51.194 49.463,49.792 50.877,49.385C51.377,50.859 51.308,52.503 51.017,54.001C50.778,55.234 50.309,56.683 49.257,57.484C49.945,58.594 50.706,59.659 51.536,60.673C51.09,59.679 50.868,58.592 50.987,57.596C51.16,56.146 51.568,54.594 53.049,53.821C53.889,55.271 54.084,56.898 54.156,58.505C54.213,59.804 54.026,61.406 53.124,62.462C54.116,63.494 55.187,64.46 56.331,65.35C55.592,64.403 55.075,63.292 54.966,62.192C54.811,60.64 54.887,58.93 56.265,57.79C57.444,59.021 58.147,60.834 58.492,62.409C58.796,63.801 59.115,65.449 58.389,66.819C59.844,67.769 61.398,68.606 63.041,69.315C61.885,68.491 60.939,67.361 60.488,66.194C59.897,64.665 59.532,62.842 60.682,61.31C62.224,62.298 63.357,63.983 64.25,65.519C65.016,66.838 65.809,68.658 65.415,70.228C66.325,70.537 67.258,70.808 68.213,71.039L68.156,71.273C67.197,71.041 66.261,70.769 65.348,70.46C64.708,72.35 62.612,72.975 60.917,73.251C58.502,73.644 55.626,72.882 53.564,71.349C54.653,69.811 56.873,69.655 58.547,69.537L58.569,69.536C60.403,69.407 62.387,69.579 64.231,70.058C62.1,69.247 60.107,68.227 58.268,67.028L58.241,67.071C57.234,68.705 55.211,68.768 53.624,68.665C51.469,68.525 48.982,67.215 47.542,65.404C48.897,64.216 50.896,64.549 52.446,64.806L52.454,64.808C54.183,65.095 56.073,65.722 57.659,66.688C57.508,66.569 57.36,66.443 57.217,66.311C55.674,65.211 54.251,63.981 52.96,62.64C52.945,62.655 52.93,62.67 52.915,62.685C51.659,63.948 49.831,63.617 48.404,63.206C46.495,62.656 44.514,60.997 43.565,59.092C45.036,58.268 46.794,58.947 48.162,59.484C49.663,60.073 51.251,61.016 52.472,62.219C52.346,62.06 52.226,61.894 52.112,61.722C50.977,60.441 49.956,59.069 49.059,57.622L49.014,57.651C47.594,58.567 45.984,57.903 44.709,57.251C42.98,56.366 41.591,54.421 40.99,52.508C42.524,52.017 44.04,52.981 45.218,53.745C46.506,54.58 47.811,55.771 48.707,57.138C48.642,57.003 48.58,56.865 48.524,56.725C47.663,55.223 46.932,53.647 46.34,52.011L46.307,52.023C45.015,52.513 43.577,51.75 42.64,50.913C41.337,49.75 40.418,47.962 40.203,46.215C41.549,46.04 42.818,47.082 43.685,47.97C44.683,48.993 45.579,50.201 46.13,51.544C46.09,51.398 46.055,51.25 46.026,51.1C45.525,49.563 45.145,47.978 44.895,46.358L44.876,46.36L44.869,46.361C43.504,46.589 42.242,45.551 41.487,44.544C40.429,43.13 39.884,41.174 40.021,39.401C41.381,39.496 42.416,40.79 43.088,41.836C43.865,43.048 44.509,44.419 44.792,45.853C44.783,45.739 44.778,45.624 44.776,45.509C44.569,43.86 44.495,42.177 44.563,40.473L44.559,40.473C43.171,40.423 42.145,39.134 41.615,37.991C40.857,36.356 40.735,34.288 41.241,32.545C42.564,32.917 43.302,34.434 43.737,35.602C44.239,36.949 44.589,38.418 44.592,39.878C44.664,38.653 44.81,37.418 45.031,36.178Z" style="fill:rgb(244,244,244);fill-rule:nonzero;"/>
        <path d="M72.368,33.155L72.368,39.005C72.368,41.578 70.038,42.816 66.507,42.816C63.205,42.816 60.839,41.59 60.839,38.702L60.839,33.155L64.128,33.155L64.128,38.702C64.128,39.733 65.014,40.377 66.64,40.377C68.194,40.377 69.116,39.709 69.116,38.714L69.116,33.155L72.368,33.155Z" style="fill:rgb(244,244,244);fill-rule:nonzero;"/>
        <path d="M83.322,40.146L83.322,42.683L74.232,42.683L74.232,33.155L77.521,33.155L77.521,40.146L83.322,40.146Z" style="fill:rgb(244,244,244);fill-rule:nonzero;"/>
        <path d="M93.097,35.546L93.097,33.155L81.725,33.155L81.725,35.546L85.742,35.546L85.742,42.683L89.068,42.683L89.068,35.546L93.097,35.546Z" style="fill:rgb(244,244,244);fill-rule:nonzero;"/>
        <path d="M104.763,34.126C105.2,34.575 105.407,35.194 105.407,36.056C105.407,36.796 105.225,37.428 104.921,37.852C104.581,38.313 104.059,38.702 103.416,38.799L106.293,42.683L102.676,42.683L100.309,39.321L97.36,39.321L97.36,42.683L94.12,42.683L94.12,33.155L101.705,33.155C103.21,33.155 104.193,33.52 104.763,34.126ZM102.142,36.857C102.227,36.711 102.251,36.517 102.251,36.359C102.251,36.177 102.227,35.983 102.142,35.862C101.972,35.546 101.632,35.461 101.122,35.461L97.372,35.461L97.372,37.197L101.183,37.197C101.705,37.197 102.021,37.1 102.142,36.857Z" style="fill:rgb(244,244,244);"/>
        <path d="M110.671,40.923L115.817,40.923L116.654,42.683L120.162,42.683L115.356,33.155L111.436,33.155L106.351,42.683L109.785,42.683L110.671,40.923ZM114.785,38.787L111.739,38.787L112.941,36.493L113.305,35.619L113.645,36.481L114.785,38.787Z" style="fill:rgb(244,244,244);"/>
        <path d="M104.416,44.477C102.38,44.477 101.309,45.442 101.309,46.86C101.309,48.46 102.433,49.272 104.416,49.272C106.599,49.272 107.517,48.331 107.517,46.86C107.517,45.365 106.481,44.477 104.416,44.477ZM104.416,48.09C103.257,48.09 102.921,47.613 102.921,46.878C102.921,46.154 103.286,45.677 104.41,45.677C105.64,45.677 105.916,46.213 105.916,46.878C105.916,47.584 105.581,48.09 104.416,48.09Z" style="fill:rgb(244,244,244);"/>
        <path d="M98.291,49.202L98.291,46.466L95.22,46.466L95.22,47.46L96.862,47.46C96.85,47.536 96.791,47.684 96.714,47.772C96.544,47.972 96.091,48.148 95.502,48.148C94.89,48.148 94.496,47.99 94.284,47.742C94.143,47.56 94.061,47.301 94.061,46.913C94.061,46.507 94.143,46.23 94.302,46.048C94.531,45.789 94.92,45.677 95.491,45.677C96.003,45.677 96.356,45.795 96.52,45.942C96.626,46.03 96.709,46.154 96.726,46.236L98.25,46.236C98.244,46.089 98.197,45.854 98.115,45.683C97.75,44.942 96.903,44.5 95.461,44.5C94.208,44.5 93.367,44.883 92.902,45.46C92.596,45.854 92.455,46.348 92.455,46.901C92.455,47.513 92.619,48.037 92.89,48.384C93.349,48.978 94.167,49.272 95.149,49.272C96.014,49.272 96.609,49.066 96.985,48.755L97.026,49.202L98.291,49.202Z" style="fill:rgb(244,244,244);fill-rule:nonzero;"/>
        <path d="M82.263,46.407C83.458,46.536 83.97,46.96 83.97,47.766C83.97,48.743 83.016,49.272 81.139,49.272C79.392,49.272 78.639,48.778 78.35,48.131C78.286,47.978 78.256,47.789 78.239,47.672L79.933,47.672C79.945,47.742 79.986,47.848 80.045,47.919C80.186,48.09 80.58,48.19 81.251,48.19C82.116,48.19 82.322,48.066 82.322,47.837C82.322,47.589 82.11,47.536 81.328,47.454C81.016,47.425 80.522,47.378 80.316,47.36C78.821,47.225 78.268,46.76 78.268,45.966C78.268,45.142 79.245,44.512 81.028,44.512C82.61,44.512 83.346,44.983 83.652,45.571C83.746,45.748 83.805,45.948 83.822,46.089L82.128,46.089C82.122,46.024 82.098,45.96 82.034,45.877C81.904,45.707 81.575,45.595 80.986,45.595C80.157,45.595 79.939,45.695 79.939,45.907C79.939,46.142 80.216,46.195 81.139,46.295C81.498,46.324 82.069,46.383 82.263,46.407Z" style="fill:rgb(244,244,244);fill-rule:nonzero;"/>
        <path d="M65.371,44.977C65.683,45.224 65.859,45.642 65.859,46.248C65.859,46.742 65.736,47.113 65.5,47.372C65.182,47.737 64.659,47.901 63.976,47.907C63.764,47.913 61.952,47.907 61.952,47.907L61.952,49.202L60.369,49.202L60.369,44.583L63.953,44.583C64.588,44.583 65.071,44.712 65.371,44.977ZM64.2,46.607C64.247,46.525 64.27,46.419 64.27,46.271C64.27,46.119 64.241,45.989 64.188,45.918C64.088,45.771 63.9,45.701 63.594,45.701L61.94,45.701L61.94,46.83L63.582,46.83C63.911,46.83 64.106,46.754 64.2,46.607Z" style="fill:rgb(244,244,244);"/>
        <path d="M71.649,45.054C71.861,45.271 71.961,45.571 71.961,45.989C71.961,46.348 71.873,46.654 71.726,46.86C71.561,47.083 71.308,47.272 70.996,47.319L72.39,49.202L70.637,49.202L69.49,47.572L68.06,47.572L68.06,49.202L66.489,49.202L66.489,44.583L70.166,44.583C70.896,44.583 71.373,44.759 71.649,45.054ZM70.378,46.377C70.419,46.307 70.431,46.213 70.431,46.136C70.431,46.048 70.419,45.954 70.378,45.895C70.296,45.742 70.131,45.701 69.884,45.701L68.066,45.701L68.066,46.542L69.913,46.542C70.166,46.542 70.319,46.495 70.378,46.377Z" style="fill:rgb(244,244,244);"/>
        <path d="M77.762,49.202L77.762,48.054L74.449,48.054L74.449,47.454L77.626,47.454L77.626,46.33L74.449,46.33L74.449,45.736L77.72,45.736L77.72,44.583L72.896,44.583L72.896,49.202L77.762,49.202Z" style="fill:rgb(244,244,244);fill-rule:nonzero;"/>
        <path d="M89.695,45.742L89.695,44.583L84.182,44.583L84.182,45.742L86.129,45.742L86.129,49.202L87.742,49.202L87.742,45.742L89.695,45.742Z" style="fill:rgb(244,244,244);fill-rule:nonzero;"/>
        <rect x="90.197" y="44.583" width="1.618" height="4.619" style="fill:rgb(244,244,244);fill-rule:nonzero;"/>
        <rect x="99.052" y="44.583" width="1.618" height="4.619" style="fill:rgb(244,244,244);fill-rule:nonzero;"/>
        <path d="M113.76,44.583L113.76,47.419C113.76,48.666 112.63,49.266 110.918,49.266C109.318,49.266 108.17,48.672 108.17,47.272L108.17,44.583L109.765,44.583L109.765,47.272C109.765,47.772 110.194,48.084 110.983,48.084C111.736,48.084 112.183,47.76 112.183,47.278L112.183,44.583L113.76,44.583Z" style="fill:rgb(244,244,244);fill-rule:nonzero;"/>
        <path d="M120.112,47.766C120.112,46.96 119.6,46.536 118.406,46.407C118.211,46.383 117.641,46.324 117.282,46.295C116.358,46.195 116.081,46.142 116.081,45.907C116.081,45.695 116.299,45.595 117.129,45.595C117.717,45.595 118.047,45.707 118.176,45.877C118.241,45.96 118.264,46.024 118.27,46.089L119.965,46.089C119.947,45.948 119.888,45.748 119.794,45.571C119.488,44.983 118.753,44.512 117.17,44.512C115.387,44.512 114.41,45.142 114.41,45.966C114.41,46.76 114.964,47.225 116.458,47.36L116.554,47.369L116.714,47.383L117.47,47.454C118.253,47.536 118.464,47.589 118.464,47.837C118.464,48.066 118.259,48.19 117.394,48.19C116.723,48.19 116.329,48.09 116.187,47.919C116.129,47.848 116.087,47.742 116.076,47.672L114.381,47.672C114.399,47.789 114.428,47.978 114.493,48.131C114.781,48.778 115.534,49.272 117.282,49.272C119.159,49.272 120.112,48.743 120.112,47.766Z" style="fill:rgb(244,244,244);fill-rule:nonzero;"/>
        <path d="M78.967,50.97C77.644,50.97 76.948,51.597 76.948,52.519C76.948,53.559 77.678,54.087 78.967,54.087C80.385,54.087 80.982,53.475 80.982,52.519C80.982,51.548 80.309,50.97 78.967,50.97ZM78.967,53.318C78.213,53.318 77.995,53.008 77.995,52.53C77.995,52.06 78.232,51.75 78.963,51.75C79.762,51.75 79.942,52.098 79.942,52.53C79.942,52.989 79.724,53.318 78.967,53.318Z" style="fill:rgb(244,244,244);"/>
        <path d="M71.609,53.108C71.609,52.584 71.276,52.309 70.5,52.224C70.373,52.209 70.002,52.171 69.769,52.152C69.169,52.087 68.989,52.052 68.989,51.899C68.989,51.762 69.131,51.697 69.67,51.697C70.052,51.697 70.266,51.769 70.35,51.88C70.392,51.934 70.408,51.976 70.412,52.018L71.513,52.018C71.501,51.926 71.463,51.796 71.402,51.681C71.203,51.299 70.725,50.993 69.696,50.993C68.538,50.993 67.903,51.402 67.903,51.938C67.903,52.454 68.262,52.756 69.234,52.844C69.368,52.855 69.689,52.886 69.891,52.905C70.4,52.959 70.538,52.993 70.538,53.154C70.538,53.303 70.404,53.383 69.842,53.383C69.406,53.383 69.15,53.318 69.058,53.207C69.02,53.161 68.993,53.093 68.985,53.047L67.884,53.047C67.895,53.123 67.914,53.245 67.957,53.345C68.144,53.766 68.633,54.087 69.769,54.087C70.989,54.087 71.609,53.743 71.609,53.108Z" style="fill:rgb(244,244,244);fill-rule:nonzero;"/>
        <path d="M63.973,53.192C63.973,53.398 63.916,53.601 63.801,53.735C63.625,53.949 63.296,54.041 62.872,54.041L60.206,54.041L60.206,51.039L62.799,51.039C63.212,51.039 63.476,51.138 63.621,51.288C63.751,51.417 63.809,51.59 63.809,51.785C63.809,51.98 63.763,52.14 63.663,52.259C63.583,52.358 63.445,52.435 63.3,52.454C63.514,52.481 63.717,52.588 63.832,52.737C63.927,52.848 63.973,53.016 63.973,53.192ZM62.684,52.14C62.723,52.098 62.746,52.037 62.746,51.964C62.746,51.892 62.723,51.831 62.673,51.789C62.619,51.739 62.52,51.72 62.375,51.72L61.208,51.72L61.208,52.209L62.401,52.209C62.531,52.209 62.631,52.19 62.684,52.14ZM62.512,53.36C62.692,53.36 62.799,53.337 62.86,53.28C62.899,53.242 62.914,53.184 62.914,53.112C62.914,53.035 62.895,52.978 62.849,52.932C62.792,52.882 62.692,52.859 62.524,52.859L61.208,52.859L61.208,53.36L62.512,53.36Z" style="fill:rgb(244,244,244);"/>
        <path d="M67.574,53.295L67.574,54.041L64.411,54.041L64.411,51.039L67.547,51.039L67.547,51.789L65.421,51.789L65.421,52.175L67.486,52.175L67.486,52.905L65.421,52.905L65.421,53.295L67.574,53.295Z" style="fill:rgb(244,244,244);fill-rule:nonzero;"/>
        <path d="M75.33,51.039L75.33,51.792L74.06,51.792L74.06,54.041L73.012,54.041L73.012,51.792L71.747,51.792L71.747,51.039L75.33,51.039Z" style="fill:rgb(244,244,244);fill-rule:nonzero;"/>
        <path d="M84.481,51.039L84.481,51.8L82.443,51.8L82.443,52.224L84.386,52.224L84.386,52.978L82.443,52.978L82.443,54.041L81.414,54.041L81.414,51.039L84.481,51.039Z" style="fill:rgb(244,244,244);fill-rule:nonzero;"/>
        <path d="M89.662,51.792L89.662,51.039L86.079,51.039L86.079,51.792L87.345,51.792L87.345,54.041L88.393,54.041L88.393,51.792L89.662,51.792Z" style="fill:rgb(244,244,244);fill-rule:nonzero;"/>
        <path d="M93.572,51.039L93.572,54.041L92.547,54.041L92.547,52.951L91.01,52.951L91.01,54.041L89.985,54.041L89.985,51.039L91.01,51.039L91.01,52.133L92.547,52.133L92.547,51.039L93.572,51.039Z" style="fill:rgb(244,244,244);fill-rule:nonzero;"/>
        <path d="M97.341,54.041L97.341,53.295L95.188,53.295L95.188,52.905L97.253,52.905L97.253,52.175L95.188,52.175L95.188,51.789L97.314,51.789L97.314,51.039L94.179,51.039L94.179,54.041L97.341,54.041Z" style="fill:rgb(244,244,244);fill-rule:nonzero;"/>
        <path d="M103.681,51.039L104.671,51.039L103.574,54.041L102.45,54.041C102.45,54.041 101.849,52.247 101.845,52.198C101.842,52.247 101.237,54.041 101.237,54.041L100.117,54.041L98.993,51.039L100.105,51.039C100.105,51.039 100.756,52.928 100.756,52.974C100.756,52.928 101.356,51.039 101.356,51.039L102.431,51.039C102.431,51.039 103.035,52.928 103.035,52.974C103.035,52.928 103.681,51.039 103.681,51.039Z" style="fill:rgb(244,244,244);fill-rule:nonzero;"/>
        <path d="M106.635,50.97C105.312,50.97 104.616,51.597 104.616,52.519C104.616,53.559 105.346,54.087 106.635,54.087C108.054,54.087 108.65,53.475 108.65,52.519C108.65,51.548 107.977,50.97 106.635,50.97ZM106.635,53.318C105.882,53.318 105.664,53.008 105.664,52.53C105.664,52.06 105.901,51.75 106.631,51.75C107.431,51.75 107.61,52.098 107.61,52.53C107.61,52.989 107.392,53.318 106.635,53.318Z" style="fill:rgb(244,244,244);"/>
        <path d="M112.437,51.345C112.574,51.486 112.639,51.681 112.639,51.953C112.639,52.186 112.582,52.385 112.486,52.519C112.379,52.664 112.215,52.787 112.012,52.817L112.918,54.041L111.779,54.041L111.033,52.982L110.104,52.982L110.104,54.041L109.083,54.041L109.083,51.039L111.473,51.039C111.947,51.039 112.257,51.154 112.437,51.345ZM111.611,52.205C111.637,52.159 111.645,52.098 111.645,52.048C111.645,51.991 111.637,51.93 111.611,51.892C111.557,51.792 111.45,51.766 111.289,51.766L110.108,51.766L110.108,52.312L111.308,52.312C111.473,52.312 111.572,52.282 111.611,52.205Z" style="fill:rgb(244,244,244);"/>
        <path d="M116.111,54.041L116.111,53.242L114.283,53.242L114.283,51.039L113.247,51.039L113.247,54.041L116.111,54.041Z" style="fill:rgb(244,244,244);fill-rule:nonzero;"/>
        <path d="M120.166,52.484C120.166,52.951 120.12,53.203 119.983,53.441C119.776,53.819 119.367,54.041 118.644,54.041L116.518,54.041L116.518,51.039L118.621,51.039C119.34,51.039 119.765,51.242 119.975,51.59C120.124,51.823 120.166,52.071 120.166,52.484ZM118.449,53.303C118.774,53.303 118.958,53.226 119.069,53.058C119.138,52.955 119.157,52.714 119.157,52.504C119.153,52.312 119.13,52.11 119.069,52.018C118.95,51.838 118.771,51.773 118.457,51.773L117.543,51.773L117.543,53.303L118.449,53.303Z" style="fill:rgb(244,244,244);"/>
        <path d="M79.145,68.641L77.56,68.641C77.56,68.641 76.526,71.663 76.526,71.736C76.526,71.663 75.56,68.641 75.56,68.641L73.84,68.641C73.84,68.641 72.88,71.663 72.88,71.736C72.88,71.663 71.84,68.641 71.84,68.641L70.059,68.641L71.858,73.443L73.651,73.443C73.651,73.443 74.617,70.574 74.623,70.494C74.63,70.574 75.59,73.443 75.59,73.443L77.389,73.443L79.145,68.641Z" style="fill:rgb(244,244,244);fill-rule:nonzero;"/>
        <rect x="79.631" y="68.641" width="1.683" height="4.803" style="fill:rgb(244,244,244);fill-rule:nonzero;"/>
        <path d="M87.858,68.641L87.858,73.443L86.218,73.443L83.838,70.77L83.838,73.443L82.26,73.443L82.26,68.641L83.985,68.641L86.292,71.253L86.292,68.641L87.858,68.641Z" style="fill:rgb(244,244,244);fill-rule:nonzero;"/>
        <path d="M94.412,73.443L94.412,68.641L92.846,68.641L92.846,71.253L90.54,68.641L88.814,68.641L88.814,73.443L90.393,73.443L90.393,70.77L92.773,73.443L94.412,73.443Z" style="fill:rgb(244,244,244);fill-rule:nonzero;"/>
        <path d="M100.429,72.25L100.429,73.443L95.369,73.443L95.369,68.641L100.386,68.641L100.386,69.84L96.984,69.84L96.984,70.458L100.288,70.458L100.288,71.626L96.984,71.626L96.984,72.25L100.429,72.25Z" style="fill:rgb(244,244,244);fill-rule:nonzero;"/>
        <path d="M106.896,70.103C106.896,69.668 106.792,69.356 106.572,69.13C106.284,68.824 105.789,68.641 105.03,68.641L101.206,68.641L101.206,73.443L102.84,73.443L102.84,71.749L104.327,71.749L105.52,73.443L107.343,73.443L105.893,71.486C106.217,71.437 106.48,71.241 106.652,71.008C106.804,70.794 106.896,70.476 106.896,70.103ZM105.305,70.256C105.305,70.335 105.293,70.433 105.25,70.507C105.189,70.629 105.03,70.678 104.767,70.678L102.846,70.678L102.846,69.803L104.736,69.803C104.993,69.803 105.165,69.846 105.25,70.005C105.293,70.066 105.305,70.164 105.305,70.256Z" style="fill:rgb(244,244,244);"/>
        <path d="M74.26,60.167L73.596,58.125L72.932,60.167L70.785,60.167L72.522,61.429L71.859,63.471L73.596,62.209L75.333,63.471L74.67,61.429L76.407,60.167L74.26,60.167Z" style="fill:rgb(244,244,244);fill-rule:nonzero;"/>
        <path d="M81.257,58.123L81.934,60.166L84.125,60.166L82.352,61.428L83.029,63.47L81.257,62.208L79.484,63.47L80.161,61.428L78.388,60.166L80.579,60.166L81.257,58.123Z" style="fill:rgb(244,244,244);fill-rule:nonzero;"/>
        <path d="M89.533,60.166L88.856,58.123L88.179,60.166L85.988,60.166L87.76,61.428L87.083,63.47L88.856,62.208L90.629,63.47L89.952,61.428L91.724,60.166L89.533,60.166Z" style="fill:rgb(244,244,244);fill-rule:nonzero;"/>
        <path d="M96.456,58.123L97.133,60.166L99.324,60.166L97.551,61.428L98.229,63.47L96.456,62.208L94.683,63.47L95.36,61.428L93.588,60.166L95.779,60.166L96.456,58.123Z" style="fill:rgb(244,244,244);fill-rule:nonzero;"/>
        <path d="M104.78,60.166L104.116,58.123L103.452,60.166L101.305,60.166L103.042,61.428L102.379,63.47L104.116,62.208L105.853,63.47L105.19,61.428L106.927,60.166L104.78,60.166Z" style="fill:rgb(244,244,244);fill-rule:nonzero;"/>
        <path d="M132.638,36.222C133.273,34.608 132.997,32.751 132.412,31.19C131.796,29.547 130.724,27.908 129.122,27.044C129.042,28.776 129.571,30.486 130.149,32.029C130.669,33.416 131.306,34.894 132.359,36.041C132.521,36.91 132.645,37.777 132.732,38.64C132.383,37.729 131.818,36.898 131.112,36.23C130.203,35.37 128.85,34.706 127.581,35.098C127.953,36.502 128.8,37.847 129.804,38.79C130.594,39.533 131.637,40.485 132.865,40.522C132.916,41.792 132.887,43.051 132.782,44.292C132.609,43.384 132.238,42.528 131.701,41.891C130.964,41.016 129.871,39.947 128.476,40.126C128.552,41.546 129.119,43.001 129.908,44.094C130.534,44.963 131.362,46.071 132.537,46.357C132.349,47.576 132.087,48.776 131.754,49.949C131.751,49.051 131.553,48.168 131.159,47.461C130.604,46.463 129.739,45.219 128.342,45.122C128.137,46.515 128.415,48.038 128.975,49.25C129.422,50.218 130.019,51.453 131.106,51.964C130.649,53.227 130.109,54.454 129.489,55.639C129.707,54.618 129.698,53.542 129.441,52.573C129.086,51.238 128.206,49.836 126.792,49.429C126.292,50.903 126.361,52.547 126.652,54.045C126.891,55.279 127.36,56.727 128.412,57.528C127.724,58.639 126.963,59.705 126.132,60.719C126.579,59.724 126.8,58.636 126.681,57.64C126.508,56.19 126.101,54.639 124.62,53.866C123.779,55.316 123.584,56.942 123.513,58.549C123.455,59.848 123.642,61.45 124.545,62.507C123.552,63.539 122.482,64.504 121.339,65.394C122.077,64.447 122.594,63.336 122.703,62.237C122.858,60.684 122.783,58.974 121.404,57.835C120.226,59.066 119.522,60.879 119.178,62.453C118.873,63.845 118.555,65.493 119.28,66.863C117.825,67.813 116.271,68.65 114.628,69.36C115.784,68.536 116.73,67.405 117.181,66.238C117.772,64.709 118.137,62.886 116.987,61.355C115.445,62.342 114.312,64.027 113.419,65.564C112.653,66.882 111.86,68.702 112.254,70.272C111.344,70.581 110.411,70.852 109.456,71.083L109.513,71.318C110.471,71.086 111.408,70.814 112.321,70.504C112.961,72.395 115.057,73.019 116.752,73.295C119.167,73.688 122.043,72.927 124.105,71.393C123.016,69.855 120.796,69.699 119.122,69.582L119.1,69.58C117.266,69.451 115.282,69.623 113.438,70.103C115.568,69.292 117.562,68.272 119.401,67.073L119.426,67.113C120.433,68.749 122.457,68.813 124.045,68.709C126.2,68.569 128.687,67.259 130.126,65.449C128.772,64.261 126.773,64.593 125.223,64.851L125.215,64.852C123.486,65.139 121.597,65.766 120.011,66.732C120.162,66.613 120.309,66.487 120.453,66.355C121.995,65.256 123.417,64.026 124.708,62.685C124.726,62.703 124.744,62.72 124.762,62.738C126.018,63.991 127.841,63.66 129.265,63.25C131.175,62.7 133.155,61.041 134.104,59.136C132.633,58.312 130.875,58.991 129.508,59.528C128.005,60.118 126.416,61.062 125.194,62.266C125.32,62.107 125.441,61.941 125.555,61.769C126.69,60.487 127.712,59.115 128.61,57.667L128.649,57.691L128.659,57.697C130.078,58.61 131.686,57.947 132.96,57.295C134.689,56.41 136.079,54.465 136.679,52.553C135.145,52.061 133.63,53.026 132.452,53.789C131.162,54.625 129.856,55.817 128.96,57.184C129.026,57.049 129.088,56.911 129.145,56.771C130.006,55.268 130.737,53.691 131.329,52.055L131.36,52.066L131.365,52.068C132.656,52.557 134.093,51.794 135.03,50.957C136.332,49.794 137.251,48.006 137.466,46.259C136.12,46.084 134.851,47.126 133.984,48.014C132.986,49.038 132.089,50.247 131.538,51.59C131.579,51.444 131.614,51.295 131.643,51.144C132.144,49.607 132.524,48.023 132.774,46.402L132.812,46.407C134.172,46.628 135.43,45.593 136.182,44.588C137.24,43.175 137.785,41.218 137.648,39.445C136.289,39.54 135.253,40.834 134.582,41.881C133.804,43.093 133.159,44.465 132.877,45.9C132.886,45.785 132.891,45.67 132.893,45.554C133.1,43.905 133.174,42.221 133.106,40.518C134.495,40.469 135.524,39.179 136.054,38.036C136.811,36.4 136.933,34.332 136.428,32.59C135.105,32.961 134.367,34.478 133.932,35.646C133.43,36.993 133.08,38.462 133.077,39.923C133.005,38.698 132.859,37.463 132.638,36.222Z" style="fill:rgb(244,244,244);fill-rule:nonzero;"/>
    </g>
</svg>
